<svg width="331" height="48" viewBox="0 0 331 48" fill="none" xmlns="http://www.w3.org/2000/svg">
<path d="M0 47.6094V43.0544H19.2559V31.6159H0V27.0576H23.8109V47.6094H0Z" fill="white"/>
<path d="M0 35.0563H15.8126V39.6113H0V35.0563Z" fill="white"/>
<path d="M3.26051 0.780762H7.81222V19.0599H19.2572V4.03997H39.809V15.6166H35.254V8.59824H23.8122V23.6149H3.2638L3.26051 0.780762Z" fill="white"/>
<path d="M11.2572 0.780772H15.8089L15.8122 15.6166H11.2605L11.2572 0.780772Z" fill="white"/>
<path d="M51.0649 47.6094V43.0544H31.809V31.6159H51.0649V27.0576H27.254V47.6094H51.0649Z" fill="white"/>
<path d="M51.0652 35.0563H35.2527V39.6113H51.0652V35.0563Z" fill="white"/>
<path d="M27.2536 12.0403H31.8086V19.0586H43.2537V0.78273H47.8054V23.6136H27.2536V12.0403Z" fill="white"/>
<path fill-rule="evenodd" clip-rule="evenodd" d="M74.8883 39.0485H68.2088L70.3761 32.9379C70.8365 31.55 71.2279 30.1654 71.514 28.9255H71.5469C71.833 30.2706 72.1882 31.4447 72.6487 32.7603L74.8883 39.0485ZM82.8834 47.6092L74.3194 23.6273H69.0968L60.7136 47.6092H65.3673L67.0347 42.7089H76.0953L77.766 47.6092H82.8834Z" fill="white"/>
<path fill-rule="evenodd" clip-rule="evenodd" d="M95.6353 30.6977C95.6353 32.9374 93.9284 34.3582 91.1559 34.3582C90.4488 34.3582 89.8108 34.322 89.4885 34.2858V27.3563C89.9489 27.2872 90.6264 27.251 91.3006 27.251C94.2145 27.251 95.6353 28.389 95.6353 30.6977ZM102.065 47.612L96.3095 39.5446C95.7076 38.729 95.0301 37.8048 94.3559 36.9168C97.9802 36.3479 100.467 33.7892 100.467 30.234C100.467 25.3337 97.056 23.4854 91.7643 23.4854C88.9919 23.4854 86.7522 23.5215 84.8677 23.6268V47.612H89.4885V37.6996H89.6661L96.3456 47.612H102.065Z" fill="white"/>
<path fill-rule="evenodd" clip-rule="evenodd" d="M118.327 40.1842C118.327 32.6857 108.237 34.2874 108.237 29.9889C108.237 28.282 109.589 27.075 112.253 27.075C113.706 27.075 115.2 27.325 116.548 27.713L116.801 23.6645C115.377 23.4146 113.815 23.237 112.463 23.237C106.708 23.237 103.334 26.187 103.334 30.4493C103.334 38.3359 113.387 36.2409 113.387 40.8255C113.387 43.029 111.579 43.986 109.23 43.986C107.491 43.986 105.57 43.5947 104.222 43.1342L103.939 47.4327C105.429 47.8241 107.135 47.9984 108.842 47.9984C114.739 47.9984 118.327 44.6964 118.327 40.1842Z" fill="white"/>
<path fill-rule="evenodd" clip-rule="evenodd" d="M141.977 47.6113V43.668H133.558V37.1628H141.549V33.4004H133.558V27.5003H141.977V23.6294H128.937V47.6113H141.977Z" fill="white"/>
<path fill-rule="evenodd" clip-rule="evenodd" d="M158.313 47.6113V43.5595H150.532V23.6294H145.914V47.6113H158.313Z" fill="white"/>
<path fill-rule="evenodd" clip-rule="evenodd" d="M173.65 47.6113V43.668H165.231V37.1628H173.226V33.4004H165.231V27.5003H173.65V23.6294H160.613V47.6113H173.65Z" fill="white"/>
<path fill-rule="evenodd" clip-rule="evenodd" d="M193.718 46.8647L193.185 42.7439C191.942 43.3128 189.985 43.7371 188.532 43.7371C183.697 43.7371 181.53 40.8265 181.53 35.6006C181.53 30.9469 183.733 27.5726 188.209 27.5726C189.844 27.5726 191.478 27.8226 193.044 28.2797L193.537 24.0898C191.978 23.6623 190.163 23.4518 188.459 23.4518C180.428 23.4518 176.448 28.7796 176.448 36.3833C176.448 42.3525 179.152 47.9303 187.535 47.9303C189.775 47.9303 191.942 47.5028 193.718 46.8647Z" fill="white"/>
<path fill-rule="evenodd" clip-rule="evenodd" d="M212.113 27.5725V23.6292H195.057V27.5725H201.276V47.6111H205.897V27.5725H212.113Z" fill="white"/>
<path fill-rule="evenodd" clip-rule="evenodd" d="M224.998 30.6977C224.998 32.9374 223.295 34.3582 220.519 34.3582C219.812 34.3582 219.174 34.322 218.851 34.2858V27.3563C219.315 27.2872 219.989 27.251 220.664 27.251C223.577 27.251 224.998 28.389 224.998 30.6977ZM231.431 47.612L225.676 39.5446C225.071 38.729 224.396 37.8048 223.719 36.9168C227.343 36.3479 229.833 33.7892 229.833 30.234C229.833 25.3337 226.419 23.4854 221.127 23.4854C218.355 23.4854 216.115 23.5215 214.234 23.6268V47.612H218.851V37.6996H219.032L225.709 47.612H231.431Z" fill="white"/>
<path fill-rule="evenodd" clip-rule="evenodd" d="M249.86 35.6372C249.86 41.3926 246.518 43.8098 243.391 43.8098C239.092 43.8098 237.102 40.5046 237.102 35.4234C237.102 30.0232 240.158 27.3921 243.463 27.3921C247.587 27.3921 249.86 30.3093 249.86 35.6372ZM254.796 35.282C254.796 27.0764 250.284 23.2351 243.89 23.2351C237.461 23.2351 232.166 27.9973 232.166 35.92C232.166 43.3461 235.754 47.9998 243.075 47.9998C249.577 47.9998 254.796 43.2047 254.796 35.282Z" fill="white"/>
<path fill-rule="evenodd" clip-rule="evenodd" d="M277.775 47.6113V23.6294H273.299V31.0917C273.299 34.0384 273.368 38.304 273.549 40.718C272.661 38.9059 271.701 36.9161 270.599 35.0678L263.919 23.6294H257.914V47.6113H262.393V39.0506C262.393 36.1696 262.321 32.4039 262.179 30.3451C262.89 31.9073 263.742 33.6832 264.774 35.4954L271.809 47.6113H277.775Z" fill="white"/>
<path fill-rule="evenodd" clip-rule="evenodd" d="M287.507 23.6276H282.886V47.6096H287.507V23.6276Z" fill="white"/>
<path fill-rule="evenodd" clip-rule="evenodd" d="M308.059 46.8647L307.526 42.7439C306.283 43.3128 304.329 43.7371 302.872 43.7371C298.041 43.7371 295.873 40.8265 295.873 35.6006C295.873 30.9469 298.077 27.5726 302.55 27.5726C304.188 27.5726 305.819 27.8226 307.384 28.2797L307.881 24.0898C306.319 23.6623 304.507 23.4518 302.803 23.4518C294.768 23.4518 290.792 28.7796 290.792 36.3833C290.792 42.3525 293.492 47.9303 301.876 47.9303C304.115 47.9303 306.283 47.5028 308.059 46.8647Z" fill="white"/>
<path fill-rule="evenodd" clip-rule="evenodd" d="M323.008 39.0485H316.329L318.496 32.9379C318.956 31.55 319.344 30.1654 319.631 28.9255H319.667C319.953 30.2706 320.305 31.4447 320.765 32.7603L323.008 39.0485ZM331 47.6092L322.439 23.6273H317.213L308.83 47.6092H313.487L315.155 42.7089H324.215L325.886 47.6092H331Z" fill="white"/>
</svg>
