<svg width="331" height="62" viewBox="0 0 331 62" fill="none" xmlns="http://www.w3.org/2000/svg">
<path d="M88.5681 54.1273C86.6831 53.3916 85.0739 53.7135 84.5222 53.9893C83.6946 53.7594 75.0971 50.8629 75.0971 50.8629C75.0971 50.8629 75.1431 50.4951 74.8672 50.1733C74.5913 49.8515 74.5913 49.8055 74.0396 49.7595C73.4879 49.7135 72.9822 49.5756 72.9822 49.5756C72.9822 49.5756 72.6144 48.932 72.1086 48.6561C71.8787 47.5527 71.5569 47.0469 70.6834 46.7711C69.8098 46.4952 69.1662 46.4033 68.2466 46.6332C67.4191 46.3573 59.2353 44.7022 59.2353 44.7022C59.2353 44.7022 59.6491 42.5872 56.3848 41.3919C55.3733 40.8861 54.6837 40.6103 54.3159 40.6103C54.9136 39.6908 55.1434 38.8172 55.0055 37.7598C56.5687 37.346 57.7641 36.5184 58.0859 35.369C58.4077 34.2656 57.6262 32.6104 57.5342 32.3806C57.948 31.2771 57.4423 30.0358 57.4423 30.0358L57.2124 30.1277L56.2469 30.9093C56.2469 30.9093 55.3274 30.1277 54.9595 29.8978C54.5917 29.622 54.086 29.3921 54.086 29.3921L55.1894 28.4726V28.4266C54.1779 27.8749 51.9711 28.3806 51.9711 28.3806C51.9711 28.3806 50.7297 27.9209 49.0746 27.737C48.6608 26.3117 47.9252 25.0244 46.9137 23.829C47.7413 22.4038 48.5229 21.0704 48.5229 21.0704C48.5229 21.0704 50.9596 20.4727 49.9482 18.2199C50.3619 18.128 51.1435 16.151 51.1435 16.151C51.1435 16.151 51.7412 15.1395 51.5573 14.8177C51.3734 14.4499 51.0976 14.0361 51.0976 14.0361L53.4883 9.9902C53.4883 9.9902 55.0975 9.76032 55.4653 8.97873C55.6952 8.8408 55.6952 8.19714 55.6952 8.19714C55.6952 8.19714 55.6492 6.77187 54.5917 6.54199C53.5343 6.26614 53.0285 7.13968 52.7987 7.32359C52.5688 7.50749 52.247 7.6914 52.201 7.96726C52.109 8.24311 52.155 8.97872 52.7067 9.43848C52.7987 9.53043 52.8446 9.6224 52.7527 9.8063C52.6607 9.9902 50.5918 13.5304 50.5918 13.5304C50.5918 13.5304 49.5344 13.3465 49.0746 13.5763C48.6608 13.6223 47.9712 14.128 47.9712 14.4959C47.8332 14.8637 47.2356 16.8406 47.2356 16.8406C47.2356 16.8406 47.2356 17.1625 47.3275 17.4383C47.0057 17.6682 46.454 17.9441 46.2701 18.4498C46.1321 18.9555 46.1781 19.3233 46.316 19.8751C46.2241 20.1969 46.0862 20.4727 46.0862 20.4727C46.0862 20.4727 45.9023 18.4958 44.1552 16.9786C44.0632 16.5188 43.5575 15.5533 43.5575 15.5533L43.3276 15.8292L43.3736 16.3809C43.3736 16.3809 42.8678 16.2429 42.3621 15.8751C42.5 15.2774 41.9943 14.0361 41.9023 13.9901C41.8104 13.9442 40.2932 13.1626 37.3507 14.6798C37.0289 13.8062 36.4312 12.335 36.4312 12.335C36.4312 12.335 37.3507 10.8178 35.6956 9.94422C35.7875 9.66837 35.7875 9.57641 35.6496 9.0247C35.5117 8.42701 34.914 7.13969 34.914 7.13969C34.914 7.13969 34.7301 6.77187 34.2703 6.7259C34.1324 6.45004 33.3508 6.45004 33.3508 6.45004L31.8795 3.00184C31.8795 3.00184 32.6611 2.03633 32.5232 1.66853C32.3853 1.30072 32.2474 0.427174 31.3278 0.105341C30.4543 -0.216492 29.5807 0.243268 29.4888 0.886933C29.3968 1.5306 29.5348 2.17426 29.8566 2.58805C30.2244 3.00183 31.2359 3.27769 31.2359 3.27769L32.7531 6.77187C32.7531 6.77187 31.7876 7.18566 32.1094 8.01323C32.4313 8.8408 32.983 10.358 32.983 10.358C32.983 10.358 33.2588 10.7258 33.4887 10.7258C33.3968 10.8178 33.1209 11.2316 33.2588 11.6453C33.3508 12.0591 33.8105 12.7488 34.4542 13.0246C34.6841 13.5763 35.1438 14.8177 35.1438 14.8177C35.1438 14.8177 34.868 14.7717 34.6381 14.9556C34.4082 15.1395 34.1783 15.5533 34.1783 15.5533C34.1783 15.5533 31.8336 16.7487 31.3738 18.082C31.3278 18.2199 31.2819 18.3578 31.2819 18.4498C29.7187 18.6337 28.2015 19.0015 26.8222 19.5073C26.8681 19.4153 26.9141 19.3233 26.9601 19.1854C27.4199 17.7142 27.0521 16.8406 24.9372 15.9211C22.8223 15.0016 19.6959 16.243 19.6959 16.243C19.6959 16.243 15.9718 14.5418 14.9603 14.22C13.9489 13.8982 13.8109 14.4039 13.8109 14.4039C13.8109 14.4039 13.9029 14.7257 14.3167 15.5073C14.7305 16.243 17.3511 17.8521 17.3511 17.8521C16.4776 19.0935 16.4776 19.7371 16.7534 20.6107C17.0752 21.4842 18.2706 22.0359 18.2706 22.0359C18.2706 22.0359 17.1672 22.3578 16.0178 23.0474C14.8224 23.783 13.719 24.9324 13.2592 25.852C12.7995 26.7715 12.9834 27.9669 12.9834 27.9669C12.9834 27.9669 12.6615 27.8749 11.8799 27.8289C11.0524 27.7829 9.30528 28.1508 7.97197 29.3461C6.63867 30.5415 7.09843 31.6909 7.09843 31.6909C7.09843 31.6909 6.86855 31.6909 6.77659 31.6909C6.73062 31.507 6.22488 31.3691 6.22488 31.3691L5.94903 30.6335C5.94903 30.6335 5.76512 30.5415 5.62719 30.5415C5.48926 30.5415 5.16743 30.5875 4.8456 30.7254C4.52377 30.8634 4.47779 31.0932 4.47779 31.0932L4.15596 31.2312L4.24791 31.461L4.15596 31.507C4.15596 31.507 1.7652 31.553 1.62727 31.553C1.62727 31.461 1.53532 31.3691 1.48934 31.3231C1.44337 31.1392 1.21349 31.1392 1.07556 31.1392C0.983608 31.1392 0.845679 31.1852 0.845679 31.1852L0.615799 31.1392C0.615799 31.1392 0.247989 31.2771 0.110061 31.3691C-0.0278676 31.507 -0.0278669 31.6449 0.0640853 31.8288C0.156038 32.0127 0.385917 32.0587 0.799702 32.0127C1.25946 31.9668 1.44337 31.7369 1.44337 31.7369C1.44337 31.7369 3.74217 31.6449 3.92608 31.6909C4.10998 31.6909 4.20193 31.6909 4.20193 31.6909L4.29389 31.9208L4.6617 31.8288L4.75365 32.0127C4.61572 33.1162 6.27086 32.4725 6.27086 32.4725H7.55819C8.06393 32.9782 10.0409 33.53 11.834 32.9323C13.627 32.3346 14.6385 31.3691 14.9144 30.3576C15.9718 30.8633 16.9373 31.0932 17.9948 31.1392C18.2706 34.2656 20.0637 37.0701 22.8223 39.0931C21.351 41.3919 19.5579 44.5182 18.2706 46.7251C16.7534 49.3457 14.3627 54.0353 13.3972 56.7479C12.4317 59.4145 11.834 60.38 13.1213 60.9317C14.3627 61.4834 14.7764 61.3455 15.1902 61.1616C15.558 60.9777 20.0637 57.6214 22.3165 55.4606C24.5693 53.2997 27.236 49.5756 28.4313 47.7826C29.3049 46.4033 30.914 43.7826 31.7416 42.3574C32.3853 42.4033 33.0289 42.4493 33.7186 42.4493C37.2128 42.4493 40.3851 41.5758 43.0058 40.1045C44.523 41.8976 46.1781 42.9551 49.1206 43.047C48.7987 46.0814 50.224 48.1963 53.1665 49.3457C56.1089 50.4951 58.9135 49.0239 59.3273 47.1389C60.2468 47.5986 66.9593 48.5641 66.9593 48.5641C66.9593 48.5641 67.511 49.7595 68.6144 49.8974C68.5685 50.0814 68.5685 50.1733 68.5685 50.1733L69.6719 51.9204C69.6719 51.9204 71.1891 53.6675 73.8557 52.2882L73.9937 52.1503C73.9937 52.1503 74.4074 52.2882 74.6833 52.1503C74.9132 52.0124 75.0511 51.9204 75.1431 51.5066C76.7982 52.0583 83.8785 54.4951 83.8785 54.4951C83.8785 54.4951 83.3728 55.9663 85.8095 56.7939C88.2462 57.6214 90.2692 57.2536 90.591 56.564C90.9128 56.0123 90.4531 54.8629 88.5681 54.1273Z" fill="#F6FA36"/>
<path d="M74.3615 15.1395C74.3615 14.4959 74.5913 13.9901 75.0511 13.5304C75.5109 13.0706 76.0166 12.8407 76.6603 12.8407C77.3039 12.8407 77.8097 13.0706 78.2694 13.5304C78.7292 13.9901 78.9591 14.4959 78.9591 15.1395C78.9591 15.7372 78.7292 16.2889 78.2694 16.7487C77.8097 17.2085 77.3039 17.4383 76.6603 17.4383C76.0166 17.4383 75.5109 17.2085 75.0511 16.7487C74.5913 16.2889 74.3615 15.7372 74.3615 15.1395ZM75.0971 20.9785H78.2234V37.3H75.0971V20.9785Z" fill="white"/>
<path d="M86.2233 20.9785V23.5072H86.3152C86.683 22.6336 87.3727 21.944 88.3382 21.3923C89.3037 20.8406 90.4071 20.5647 91.6944 20.5647C92.476 20.5647 93.2117 20.7026 93.9473 20.9325C94.6829 21.1624 95.3265 21.5302 95.8323 22.0359C96.384 22.5417 96.7978 23.1853 97.1196 23.9669C97.4415 24.7485 97.5794 25.714 97.5794 26.7715V37.3H94.453V27.645C94.453 26.9094 94.3611 26.2198 94.1312 25.714C93.9013 25.1623 93.6714 24.7485 93.3036 24.3807C92.9358 24.0589 92.568 23.829 92.1082 23.6451C91.6485 23.5072 91.1887 23.4152 90.7289 23.4152C90.0853 23.4152 89.4876 23.5072 88.9359 23.7371C88.3842 23.9669 87.9244 24.2888 87.5106 24.7026C87.0968 25.1623 86.775 25.714 86.5451 26.4037C86.3152 27.0933 86.1773 27.9209 86.1773 28.8404V37.254H83.0969V20.9785H86.2233Z" fill="white"/>
<path d="M106.591 23.6911V31.0932C106.591 31.553 106.591 32.0128 106.637 32.4725C106.637 32.9323 106.729 33.3001 106.913 33.6679C107.096 34.0357 107.28 34.3116 107.602 34.5414C107.924 34.7713 108.384 34.8633 108.981 34.8633C109.349 34.8633 109.717 34.8173 110.131 34.7713C110.499 34.7253 110.866 34.5874 111.188 34.4035V37.254C110.82 37.4379 110.361 37.6218 109.763 37.6678C109.165 37.7598 108.706 37.8057 108.384 37.8057C107.188 37.8057 106.269 37.6218 105.625 37.3C104.982 36.9782 104.476 36.5184 104.154 36.0127C103.832 35.5069 103.648 34.9093 103.602 34.2196C103.556 33.5759 103.51 32.8863 103.51 32.2426V23.7371H99.9242V21.0704H103.51V16.4728H106.637V21.0704H111.096V23.6911H106.591Z" fill="white"/>
<path d="M117.395 30.3116C117.395 31.0013 117.533 31.6909 117.855 32.2426C118.177 32.8403 118.59 33.3461 119.096 33.7599C119.602 34.1736 120.2 34.4955 120.843 34.7253C121.487 34.9552 122.177 35.0932 122.912 35.0932C123.878 35.0932 124.705 34.8633 125.441 34.4035C126.177 33.9438 126.82 33.3461 127.418 32.6105L129.763 34.4035C128.016 36.6563 125.625 37.7598 122.498 37.7598C121.211 37.7598 120.062 37.5299 119.004 37.1161C117.947 36.7023 117.073 36.0587 116.338 35.323C115.602 34.5414 115.05 33.6679 114.682 32.6105C114.269 31.553 114.085 30.4496 114.085 29.2082C114.085 28.0128 114.315 26.8634 114.728 25.806C115.142 24.7485 115.74 23.875 116.476 23.0934C117.211 22.3118 118.131 21.7141 119.142 21.3003C120.154 20.8865 121.303 20.6567 122.498 20.6567C123.97 20.6567 125.165 20.9325 126.177 21.4382C127.188 21.944 128.016 22.5877 128.659 23.4152C129.303 24.2428 129.763 25.1623 130.039 26.1738C130.314 27.1853 130.452 28.2427 130.452 29.3002V30.4036H117.395V30.3116ZM127.188 27.8289C127.142 27.1393 127.05 26.4956 126.866 25.9439C126.682 25.3922 126.36 24.8865 125.993 24.4267C125.579 24.0129 125.119 23.6911 124.521 23.4152C123.924 23.1853 123.234 23.0474 122.452 23.0474C121.717 23.0474 120.981 23.1853 120.384 23.4612C119.74 23.7371 119.234 24.1049 118.774 24.5646C118.315 25.0244 117.993 25.5301 117.763 26.0818C117.533 26.6336 117.395 27.1853 117.395 27.737H127.188V27.8289Z" fill="white"/>
<path d="M134.222 20.9785H137.349V23.5072H137.441C137.671 23.0934 137.9 22.6796 138.268 22.3118C138.636 21.944 139.004 21.6681 139.418 21.3923C139.831 21.1624 140.291 20.9325 140.797 20.7946C141.303 20.6567 141.808 20.5647 142.314 20.5647C142.82 20.5647 143.28 20.6567 143.693 20.7946L143.555 24.1508C143.28 24.1049 143.05 24.0129 142.82 23.9669C142.544 23.921 142.314 23.921 142.038 23.921C140.521 23.921 139.372 24.3347 138.544 25.2083C137.717 26.0818 137.349 27.3692 137.349 29.1622V37.346H134.222V20.9785Z" fill="white"/>
<path d="M148.199 23.6911H144.659V21.0245H148.153V17.3464C148.153 15.1855 148.567 13.5304 149.394 12.4729C150.222 11.4155 151.693 10.8637 153.716 10.8637C154.084 10.8637 154.406 10.8638 154.82 10.9097C155.187 10.9557 155.601 11.0017 156.061 11.0936L155.693 13.8522C155.371 13.7602 155.095 13.6683 154.82 13.6223C154.544 13.5763 154.222 13.5763 153.9 13.5763C153.302 13.5763 152.889 13.6683 152.521 13.8522C152.153 14.0361 151.923 14.266 151.693 14.5878C151.509 14.9096 151.371 15.2775 151.325 15.7372C151.279 16.197 151.233 16.7027 151.233 17.2544V21.0245H154.912V23.6911H151.188V37.346H148.061V23.6911H148.199Z" fill="white"/>
<path d="M158.544 23.0014C159.417 22.2198 160.429 21.5762 161.578 21.2084C162.727 20.7946 163.877 20.6107 165.026 20.6107C166.222 20.6107 167.233 20.7486 168.107 21.0704C168.98 21.3923 169.67 21.7601 170.222 22.2658C170.773 22.7716 171.187 23.3692 171.463 24.0129C171.739 24.6566 171.877 25.3462 171.877 26.0818V34.3575C171.877 34.9092 171.877 35.461 171.923 35.9207C171.923 36.4265 171.969 36.8862 172.015 37.3H169.256C169.164 36.4724 169.164 35.6449 169.164 34.8173H169.072C168.383 35.8747 167.555 36.6104 166.635 37.0701C165.67 37.4839 164.613 37.7138 163.371 37.7138C162.636 37.7138 161.9 37.6218 161.21 37.392C160.521 37.1621 159.923 36.8862 159.417 36.4724C158.911 36.0587 158.498 35.5529 158.176 34.9552C157.854 34.3575 157.716 33.6219 157.716 32.8403C157.716 31.7829 157.946 30.9093 158.406 30.1737C158.866 29.4841 159.509 28.8864 160.337 28.4266C161.164 27.9669 162.084 27.645 163.187 27.4611C164.291 27.2772 165.44 27.1853 166.681 27.1853H168.98V26.4956C168.98 26.0818 168.888 25.6681 168.75 25.2543C168.566 24.8405 168.337 24.4727 168.015 24.1508C167.693 23.829 167.279 23.5532 166.819 23.3693C166.36 23.1853 165.762 23.0934 165.072 23.0934C164.475 23.0934 163.969 23.1394 163.509 23.2773C163.049 23.4152 162.636 23.5531 162.268 23.6911C161.9 23.829 161.578 24.0589 161.256 24.2888C160.934 24.5187 160.659 24.7485 160.383 24.9324L158.544 23.0014ZM167.279 29.4841C166.544 29.4841 165.808 29.5301 165.026 29.622C164.245 29.714 163.555 29.8519 162.911 30.0818C162.268 30.3116 161.762 30.6335 161.348 31.0473C160.934 31.461 160.751 32.0127 160.751 32.6564C160.751 33.6219 161.072 34.2656 161.716 34.6794C162.36 35.0932 163.187 35.2771 164.291 35.2771C165.118 35.2771 165.854 35.1391 166.452 34.8633C167.049 34.5874 167.509 34.2196 167.923 33.7599C168.291 33.3001 168.566 32.7943 168.704 32.2426C168.842 31.6909 168.934 31.1392 168.934 30.5875V29.576H167.279V29.4841Z" fill="white"/>
<path d="M188.06 25.3462C187.463 24.7485 186.865 24.2888 186.267 23.9669C185.624 23.6451 184.888 23.5072 184.014 23.5072C183.141 23.5072 182.405 23.6451 181.808 23.9669C181.164 24.2888 180.658 24.7026 180.198 25.2543C179.785 25.806 179.463 26.4037 179.233 27.1393C179.003 27.8289 178.911 28.5645 178.911 29.3461C178.911 30.1277 179.049 30.8174 179.279 31.507C179.509 32.1967 179.877 32.7944 180.336 33.3001C180.796 33.8058 181.348 34.2196 181.992 34.4955C182.635 34.7713 183.371 34.9093 184.152 34.9093C185.026 34.9093 185.762 34.7713 186.405 34.4495C187.049 34.1277 187.601 33.6679 188.152 33.0702L190.359 35.2771C189.532 36.1506 188.612 36.7943 187.555 37.2081C186.497 37.6218 185.348 37.8057 184.152 37.8057C182.865 37.8057 181.716 37.6218 180.704 37.2081C179.647 36.7943 178.773 36.1966 177.992 35.461C177.256 34.7253 176.658 33.8058 176.244 32.7484C175.831 31.6909 175.647 30.5415 175.647 29.3002C175.647 28.0588 175.877 26.8634 176.244 25.806C176.658 24.7485 177.256 23.829 177.992 23.0934C178.727 22.3578 179.647 21.7601 180.658 21.3003C181.716 20.8865 182.865 20.6567 184.152 20.6567C185.348 20.6567 186.497 20.8865 187.601 21.3003C188.704 21.7141 189.624 22.3578 190.451 23.2313L188.06 25.3462Z" fill="white"/>
<path d="M195.325 30.3116C195.325 31.0013 195.462 31.6909 195.784 32.2426C196.106 32.8403 196.52 33.3461 197.026 33.7599C197.531 34.1736 198.129 34.4955 198.773 34.7253C199.416 34.9552 200.106 35.0932 200.842 35.0932C201.807 35.0932 202.635 34.8633 203.37 34.4035C204.106 33.9438 204.75 33.3461 205.347 32.6105L207.692 34.4035C205.945 36.6563 203.554 37.7598 200.428 37.7598C199.141 37.7598 197.991 37.5299 196.934 37.1161C195.876 36.7023 195.003 36.0587 194.267 35.323C193.531 34.5414 192.98 33.6679 192.612 32.6105C192.198 31.553 192.014 30.4496 192.014 29.2082C192.014 28.0128 192.244 26.8634 192.658 25.806C193.072 24.7485 193.669 23.875 194.405 23.0934C195.141 22.3118 196.06 21.7141 197.072 21.3003C198.083 20.8865 199.233 20.6567 200.428 20.6567C201.899 20.6567 203.095 20.9325 204.106 21.4382C205.117 21.944 205.945 22.5877 206.589 23.4152C207.232 24.2428 207.692 25.1623 207.968 26.1738C208.244 27.1853 208.382 28.2427 208.382 29.3002V30.4036H195.325V30.3116ZM205.117 27.8289C205.072 27.1393 204.98 26.4956 204.796 25.9439C204.612 25.3922 204.29 24.8865 203.922 24.4267C203.508 24.0129 203.049 23.6911 202.451 23.4152C201.853 23.1853 201.164 23.0474 200.382 23.0474C199.646 23.0474 198.911 23.1853 198.313 23.4612C197.669 23.7371 197.164 24.1049 196.704 24.5646C196.244 25.0244 195.922 25.5301 195.692 26.0818C195.462 26.6336 195.325 27.1853 195.325 27.737H205.117V27.8289Z" fill="white"/>
<path d="M223.83 25.3462C223.232 24.7485 222.634 24.2888 222.037 23.9669C221.393 23.6451 220.657 23.5072 219.784 23.5072C218.91 23.5072 218.175 23.6451 217.577 23.9669C216.933 24.2888 216.428 24.7026 215.968 25.2543C215.554 25.806 215.232 26.4037 215.002 27.1393C214.772 27.8289 214.68 28.5645 214.68 29.3461C214.68 30.1277 214.818 30.8174 215.048 31.507C215.278 32.1967 215.646 32.7944 216.106 33.3001C216.566 33.8058 217.117 34.2196 217.761 34.4955C218.405 34.7713 219.14 34.9093 219.922 34.9093C220.795 34.9093 221.531 34.7713 222.175 34.4495C222.818 34.1277 223.37 33.6679 223.922 33.0702L226.129 35.2771C225.301 36.1506 224.381 36.7943 223.324 37.2081C222.267 37.6218 221.117 37.8057 219.922 37.8057C218.634 37.8057 217.485 37.6218 216.474 37.2081C215.416 36.7943 214.543 36.1966 213.761 35.461C213.025 34.7253 212.428 33.8058 212.014 32.7484C211.6 31.6909 211.416 30.5415 211.416 29.3002C211.416 28.0588 211.646 26.8634 212.014 25.806C212.428 24.7485 213.025 23.829 213.761 23.0934C214.497 22.3578 215.416 21.7601 216.428 21.3003C217.485 20.8865 218.634 20.6567 219.922 20.6567C221.117 20.6567 222.267 20.8865 223.37 21.3003C224.473 21.7141 225.393 22.3578 226.221 23.2313L223.83 25.3462Z" fill="#F6FA36"/>
<path d="M240.151 37.346V34.8173H240.105C239.691 35.6908 239.048 36.3805 238.082 36.9322C237.117 37.4839 236.013 37.7598 234.726 37.7598C233.899 37.7598 233.163 37.6218 232.427 37.392C231.692 37.1621 231.094 36.7943 230.542 36.2885C229.991 35.7828 229.577 35.1391 229.255 34.3575C228.933 33.5759 228.749 32.6104 228.749 31.553V21.0245H231.876V30.6794C231.876 31.4151 231.968 32.1047 232.197 32.6105C232.381 33.1622 232.657 33.5759 233.025 33.9438C233.393 34.2656 233.761 34.5414 234.22 34.6794C234.68 34.8173 235.14 34.9093 235.6 34.9093C236.243 34.9093 236.841 34.8173 237.393 34.5874C237.944 34.3575 238.404 34.0357 238.864 33.6219C239.324 33.2081 239.6 32.6104 239.829 31.9208C240.059 31.2312 240.197 30.4036 240.197 29.4841V21.0704H243.324V37.346H240.151Z" fill="#F6FA36"/>
<path d="M248.197 11.2775H251.323V37.346H248.197V11.2775Z" fill="#F6FA36"/>
<path d="M260.519 23.6911V31.0932C260.519 31.553 260.519 32.0128 260.565 32.4725C260.565 32.9323 260.657 33.3001 260.84 33.6679C261.024 34.0357 261.208 34.3116 261.53 34.5414C261.852 34.7713 262.312 34.8633 262.909 34.8633C263.277 34.8633 263.645 34.8173 264.059 34.7713C264.427 34.7253 264.794 34.5874 265.116 34.4035V37.254C264.748 37.4379 264.289 37.6218 263.691 37.6678C263.093 37.7598 262.634 37.8057 262.312 37.8057C261.116 37.8057 260.197 37.6218 259.553 37.3C258.909 36.9782 258.404 36.5184 258.082 36.0127C257.76 35.5069 257.576 34.9093 257.53 34.2196C257.484 33.5759 257.438 32.8863 257.438 32.2426V23.7371H253.852V21.0704H257.438V16.4728H260.565V21.0704H265.024V23.6911H260.519Z" fill="#F6FA36"/>
<path d="M280.334 37.346V34.8173H280.288C279.875 35.6908 279.231 36.3805 278.265 36.9322C277.3 37.4839 276.197 37.7598 274.909 37.7598C274.082 37.7598 273.346 37.6218 272.61 37.392C271.875 37.1621 271.277 36.7943 270.725 36.2885C270.174 35.7828 269.76 35.1391 269.438 34.3575C269.116 33.5759 268.932 32.6104 268.932 31.553V21.0245H272.059V30.6794C272.059 31.4151 272.151 32.1047 272.38 32.6105C272.564 33.1622 272.84 33.5759 273.208 33.9438C273.576 34.2656 273.944 34.5414 274.403 34.6794C274.863 34.8173 275.323 34.9093 275.783 34.9093C276.426 34.9093 277.024 34.8173 277.576 34.5874C278.127 34.3575 278.587 34.0357 279.047 33.6219C279.507 33.2081 279.783 32.6104 280.013 31.9208C280.242 31.2312 280.38 30.4036 280.38 29.4841V21.0704H283.507V37.346H280.334Z" fill="#F6FA36"/>
<path d="M288.15 20.9785H291.277V23.5072H291.369C291.599 23.0934 291.828 22.6796 292.196 22.3118C292.564 21.944 292.932 21.6681 293.346 21.3923C293.759 21.1624 294.219 20.9325 294.725 20.7946C295.231 20.6567 295.736 20.5647 296.242 20.5647C296.748 20.5647 297.208 20.6567 297.621 20.7946L297.483 24.1508C297.208 24.1049 296.978 24.0129 296.748 23.9669C296.472 23.921 296.242 23.921 295.966 23.921C294.449 23.921 293.3 24.3347 292.472 25.2083C291.645 26.0818 291.277 27.3692 291.277 29.1622V37.346H288.15V20.9785Z" fill="#F6FA36"/>
<path d="M302.633 30.3116C302.633 31.0013 302.771 31.6909 303.093 32.2426C303.414 32.8403 303.828 33.3461 304.334 33.7599C304.84 34.1736 305.437 34.4955 306.081 34.7253C306.725 34.9552 307.414 35.0932 308.15 35.0932C309.115 35.0932 309.943 34.8633 310.679 34.4035C311.414 33.9438 312.058 33.3461 312.656 32.6105L315 34.4035C313.253 36.6563 310.863 37.7598 307.736 37.7598C306.449 37.7598 305.299 37.5299 304.242 37.1161C303.184 36.7023 302.311 36.0587 301.575 35.323C300.84 34.5414 300.288 33.6679 299.92 32.6105C299.506 31.553 299.323 30.4496 299.323 29.2082C299.323 28.0128 299.552 26.8634 299.966 25.806C300.38 24.7485 300.978 23.875 301.713 23.0934C302.449 22.3118 303.368 21.7141 304.38 21.3003C305.391 20.8865 306.541 20.6567 307.736 20.6567C309.207 20.6567 310.403 20.9325 311.414 21.4382C312.426 21.944 313.253 22.5877 313.897 23.4152C314.541 24.2428 315 25.1623 315.276 26.1738C315.552 27.1853 315.69 28.2427 315.69 29.3002V30.4036H302.633V30.3116ZM312.426 27.8289C312.38 27.1393 312.288 26.4956 312.104 25.9439C311.92 25.3922 311.598 24.8865 311.23 24.4267C310.817 24.0129 310.357 23.6911 309.759 23.4152C309.161 23.1853 308.472 23.0474 307.69 23.0474C306.955 23.0474 306.219 23.1853 305.621 23.4612C304.978 23.7371 304.472 24.1049 304.012 24.5646C303.552 25.0244 303.23 25.5301 303.001 26.0818C302.771 26.6336 302.633 27.1853 302.633 27.737H312.426V27.8289Z" fill="#F6FA36"/>
<path d="M328.15 25.1163C327.782 24.6566 327.322 24.2888 326.77 23.9669C326.218 23.6451 325.575 23.5072 324.793 23.5072C324.058 23.5072 323.414 23.6451 322.862 23.9669C322.311 24.2888 322.035 24.7485 322.035 25.3462C322.035 25.806 322.173 26.2198 322.494 26.4956C322.816 26.8175 323.184 27.0473 323.598 27.2312C324.012 27.4151 324.471 27.5531 324.977 27.645C325.437 27.737 325.897 27.8289 326.219 27.8749C326.862 28.0588 327.506 28.2427 328.104 28.4726C328.701 28.7025 329.207 29.0243 329.621 29.3921C330.035 29.7599 330.356 30.2197 330.632 30.7254C330.862 31.2771 331 31.9208 331 32.6564C331 33.5759 330.816 34.3575 330.402 35.0012C329.989 35.6449 329.483 36.1966 328.885 36.6104C328.241 37.0241 327.552 37.3 326.77 37.5299C325.989 37.7138 325.161 37.8057 324.379 37.8057C323 37.8057 321.851 37.6218 320.793 37.2081C319.782 36.7943 318.862 36.0127 318.035 34.9093L320.38 32.9783C320.885 33.484 321.437 33.9437 322.081 34.3116C322.724 34.6794 323.46 34.9093 324.379 34.9093C324.747 34.9093 325.161 34.8633 325.575 34.7713C325.989 34.6794 326.356 34.5874 326.632 34.4035C326.908 34.2196 327.184 34.0357 327.414 33.7599C327.598 33.484 327.69 33.2081 327.69 32.8403C327.69 32.3806 327.552 32.0128 327.276 31.6909C327 31.4151 326.632 31.1392 326.264 31.0013C325.851 30.8174 325.437 30.6794 324.977 30.5875C324.517 30.4955 324.15 30.4036 323.782 30.3116C323.092 30.1737 322.494 29.9438 321.897 29.7599C321.299 29.53 320.747 29.2542 320.334 28.9324C319.874 28.6105 319.506 28.1508 319.23 27.645C318.954 27.1393 318.816 26.4497 318.816 25.6681C318.816 24.8405 319 24.0589 319.368 23.4612C319.736 22.8175 320.196 22.3118 320.793 21.898C321.391 21.4842 322.035 21.1624 322.77 20.9785C323.506 20.7486 324.288 20.6567 325.023 20.6567C326.127 20.6567 327.184 20.8865 328.195 21.3003C329.207 21.7141 329.989 22.4038 330.586 23.3693L328.15 25.1163Z" fill="#F6FA36"/>
</svg>
