<svg width="331" height="62" viewBox="0 0 331 62" fill="none" xmlns="http://www.w3.org/2000/svg">
<path d="M331 49.2857V62H327.306V49.6149C327.306 44.7844 324.866 42.3188 320.016 42.3188C315.167 42.3188 312.694 44.7844 312.694 49.6149V62H309V49.2857C309 42.779 313.045 39 320.016 39C326.987 39 331 42.779 331 49.2857Z" fill="white"/>
<path d="M305 55.504H301.608V53.0947C300.621 54.9438 298.739 56 296.429 56C292.945 56 291 53.6245 291 49.5955V39H294.392V48.8362C294.392 51.4109 295.41 52.6661 297.538 52.6661C300.158 52.6661 301.608 50.7495 301.608 46.923V39H305V55.504Z" fill="white"/>
<path d="M288 62H284V58.3406H288V62ZM287.931 55.79H284.073V39H287.931V55.79Z" fill="white"/>
<path d="M281 56H277.401L273 42.4688L268.322 56H265L270.845 39H275.492L281 56Z" fill="white"/>
<path d="M263.997 47.5C263.997 52.8879 261.165 56 256.357 56C251.549 56 249 53.1142 249 48.11V46.8277H260.335C260.175 43.6206 258.743 41.9842 256.132 41.9842C254.254 41.9842 253.043 42.8499 252.695 44.5814H249.065C249.576 41.0529 252.249 39 256.23 39C261.132 39 264 42.1121 264 47.5H263.997ZM252.724 49.2971C252.978 51.7992 254.189 53.0486 256.354 53.0486C258.518 53.0486 259.824 51.7664 260.237 49.2971H252.724Z" fill="white"/>
<path d="M246 56H242.699V53.5183C241.89 55.1172 240.359 56 238.35 56H237V52.3609H238.77C241.35 52.3609 242.699 50.6265 242.699 47.2271V39H246V56Z" fill="white"/>
<path d="M234 44.6142H230.468C230.212 42.722 228.958 41.7579 226.68 41.7579C224.592 41.7579 223.532 42.463 223.532 43.8108C223.532 44.7749 224.077 45.5095 225.653 45.7685L229.506 46.4113C232.204 46.8605 233.616 48.5297 233.616 50.9334C233.616 54.1078 231.144 56 227.13 56C223.115 56 220.771 54.1078 220.322 50.8351H223.854C224.11 52.4387 225.236 53.2421 227.225 53.2421C229.214 53.2421 230.179 52.5042 230.179 51.2548C230.179 50.4219 229.729 49.8119 228.38 49.6184L224.238 48.9134C221.411 48.4641 220 46.6047 220 44.1649C220 40.8922 222.537 39 226.742 39C230.947 39 233.678 41.0856 233.997 44.6142H234Z" fill="white"/>
<path d="M217 62H214V58.3406H217V62ZM216.948 55.79H214.055V39H216.948V55.79Z" fill="white"/>
<path d="M206.613 42.4475V52.3644H211V55.26H206.613V59H203.091V55.26H198.543V52.3644H203.091V43.4215C203.091 42.4142 202.577 41.8923 201.585 41.8923H198V39H203.218C205.363 39 206.613 40.2699 206.613 42.4475Z" fill="white"/>
<path d="M195.068 36.8596H192.224C191.114 36.8596 190.622 37.1813 190.198 38.337L189.61 39.9424H190.95L197 56H193.273L188.403 43.1237L183.597 56H180L186.962 37.4046C187.975 34.7059 188.924 34 191.244 34H195.068V36.8596Z" fill="white"/>
<path d="M174 47.5C174 52.8584 171.061 56 166.016 56C160.971 56 158 52.8584 158 47.5C158 42.1416 160.971 39 166.016 39C171.061 39 174 42.1449 174 47.5ZM166.016 41.9842C163.172 41.9842 161.703 43.8468 161.703 47.5C161.703 51.1532 163.172 53.0486 166.016 53.0486C168.86 53.0486 170.297 51.1564 170.297 47.5C170.297 43.8436 168.86 41.9842 166.016 41.9842Z" fill="white"/>
<path d="M150.253 62H146V59.0134H148.589C149.612 59.0134 150.093 58.4779 150.093 57.4343V55.79H146.543V52.8H150.093V39H153.61V52.8H157V55.79H153.61V58.4402C153.61 60.6921 152.394 62 150.253 62Z" fill="white"/>
<path d="M131.735 62H127.363L119 39H122.765L124.713 44.4067H134.414L136.362 39H140L131.735 62ZM125.96 47.8293L129.598 57.836L133.203 47.8293H125.96Z" fill="white"/>
<path d="M117 56H113.333V53.5183C112.433 55.1172 110.732 56 108.5 56H107V52.3609H108.967C111.833 52.3609 113.333 50.6265 113.333 47.2271V39H117V56Z" fill="white"/>
<path d="M99.6132 42.4475V52.3644H104V55.26H99.6132V59H96.0907V55.26H91.5434V52.3644H96.0907V43.4215C96.0907 42.4142 95.5767 41.8923 94.5847 41.8923H91V39H96.2183C98.3626 39 99.6132 40.2699 99.6132 42.4475Z" fill="white"/>
<path d="M89 44.6142H85.468C85.212 42.722 83.958 41.7579 81.68 41.7579C79.5923 41.7579 78.532 42.463 78.532 43.8108C78.532 44.7749 79.0769 45.5095 80.6525 45.7685L84.5062 46.4113C87.2045 46.8605 88.6159 48.5297 88.6159 50.9334C88.6159 54.1078 86.1442 56 82.1297 56C78.1151 56 75.7714 54.1078 75.3217 50.8351H78.8537C79.1097 52.4387 80.2356 53.2421 82.2249 53.2421C84.2141 53.2421 85.1791 52.5042 85.1791 51.2548C85.1791 50.4219 84.7294 49.8119 83.3803 49.6184L79.2377 48.9134C76.4115 48.4641 75 46.6047 75 44.1649C75 40.8922 77.5374 39 81.7423 39C85.9472 39 88.6783 41.0856 89 44.6142Z" fill="white"/>
<path d="M0 34H3.69403V52.723H22V56H0V34Z" fill="white"/>
<path d="M25 34H29V37.5003H25V34ZM25.0694 39.94H28.9269V56H25.0694V39.94Z" fill="white"/>
<path d="M32 39.496H35.6343V41.9053C36.6915 40.0562 38.7079 39 41.1837 39C44.916 39 47 41.3756 47 45.4045V56H43.3657V46.1638C43.3657 43.5891 42.2747 42.3339 39.9948 42.3339C37.188 42.3339 35.6343 44.2505 35.6343 48.077V56H32V39.496Z" fill="white"/>
<path d="M50 52.6702L59.5645 42.0274H50.1996V39H63.7361V42.2985L54.1716 52.9761H64V56H50.0034V52.6702H50Z" fill="white"/>
<path d="M26 16.5976V6H29.4456V15.8382C29.4456 18.3796 30.5087 19.6688 32.6093 19.6688C35.2095 19.6688 36.5544 17.654 36.5544 13.6613V6H40V22.5072H36.5544V20.03C35.677 21.9132 33.8614 23 31.4822 23C28.0046 23 26 20.624 26 16.5942V16.5976Z" fill="white"/>
<path d="M44 5.52521H47.6343V8.07622C48.6915 6.1183 50.7079 5 53.1837 5C56.916 5 59 7.51528 59 11.7813V23H55.3657V12.5852C55.3657 9.85907 54.2747 8.52997 51.9948 8.52997C49.188 8.52997 47.6343 10.5593 47.6343 14.611V23H44V5.52521Z" fill="white"/>
<path d="M61 17.059H64.7843C65.0586 19.0625 66.4021 20.0799 68.8429 20.0799C71.0797 20.0799 72.2157 19.3333 72.2157 17.9062C72.2157 16.8854 71.6319 16.1076 69.9437 15.8333L65.8148 15.1528C62.9238 14.6771 61.4115 12.9097 61.4115 10.3646C61.4115 7.00347 64.0598 5 68.3611 5C72.6624 5 75.1735 7.00347 75.6553 10.4687H71.871C71.5967 8.77083 70.3904 7.92014 68.2591 7.92014C66.1278 7.92014 65.0938 8.70139 65.0938 10.0243C65.0938 10.9062 65.5756 11.5521 67.0211 11.7569L71.4596 12.5035C74.4877 12.9792 76 14.9479 76 17.5312C76 20.9965 73.2814 23 68.7761 23C64.2708 23 61.3447 20.7917 61 17.0556V17.059Z" fill="white"/>
<path d="M82.3868 19.5525V9.63564H78V6.74003H82.3868V3H85.9093V6.74003H90.4566V9.63564H85.9093V18.5785C85.9093 19.5858 86.4233 20.1077 87.4153 20.1077H91V23H85.7817C83.6374 23 82.3868 21.7301 82.3868 19.5525Z" fill="white"/>
<path d="M94 16.5976V6H97.6917V15.8382C97.6917 18.3796 98.8307 19.6688 101.081 19.6688C103.867 19.6688 105.308 17.654 105.308 13.6613V6H109V22.5072H105.308V20.03C104.368 21.9132 102.423 23 99.8737 23C96.1478 23 94 20.624 94 16.5942V16.5976Z" fill="white"/>
<path d="M112 5.52521H115.877V8.07622C117.004 6.1183 119.155 5 121.796 5C125.777 5 128 7.51528 128 11.7813V23H124.123V12.5852C124.123 9.85907 122.96 8.52997 120.528 8.52997C117.534 8.52997 115.877 10.5593 115.877 14.611V23H112V5.52521Z" fill="white"/>
<path d="M131 0H135V3.6594H131V0ZM131.069 6.21H134.927V23H131.069V6.21Z" fill="white"/>
<path d="M138 6H141.599L146 19.5312L150.678 6H154L148.155 23H143.508L138 6Z" fill="white"/>
<path d="M155.003 14C155.003 8.29514 157.835 5 162.643 5C167.451 5 170 8.05555 170 13.3542V14.7118H158.665C158.825 18.1076 160.257 19.8403 162.868 19.8403C164.746 19.8403 165.957 18.9236 166.305 17.0903H169.935C169.424 20.8264 166.751 23 162.77 23C157.868 23 155 19.7049 155 14H155.003ZM166.273 12.0972C166.019 9.44792 164.808 8.125 162.643 8.125C160.479 8.125 159.173 9.48264 158.76 12.0972H166.273Z" fill="white"/>
<path d="M174 6H177.667V8.4817C178.567 6.88285 180.268 6 182.5 6H184V9.63913H182.033C179.167 9.63913 177.667 11.3735 177.667 14.7728V23H174V6Z" fill="white"/>
<path d="M186 17.059H189.532C189.788 19.0625 191.042 20.0799 193.32 20.0799C195.408 20.0799 196.468 19.3333 196.468 17.9062C196.468 16.8854 195.923 16.1076 194.347 15.8333L190.494 15.1528C187.796 14.6771 186.384 12.9097 186.384 10.3646C186.384 7.00347 188.856 5 192.87 5C196.885 5 199.229 7.00347 199.678 10.4687H196.146C195.89 8.77083 194.764 7.92014 192.775 7.92014C190.786 7.92014 189.821 8.70139 189.821 10.0243C189.821 10.9062 190.271 11.5521 191.62 11.7569L195.762 12.5035C198.588 12.9792 200 14.9479 200 17.5312C200 20.9965 197.463 23 193.258 23C189.053 23 186.322 20.7917 186 17.0556V17.059Z" fill="white"/>
<path d="M203 0H208V3.6594H203V0ZM203.087 6.21H207.909V23H203.087V6.21Z" fill="white"/>
<path d="M214.387 19.5525V9.63564H210V6.74003H214.387V3H217.909V6.74003H222.457V9.63564H217.909V18.5785C217.909 19.5858 218.423 20.1077 219.415 20.1077H223V23H217.782C215.637 23 214.387 21.7301 214.387 19.5525Z" fill="white"/>
<path d="M225.003 18.3033C225.003 15.8423 226.632 14.0603 229.461 13.5072L233.452 12.699C235.247 12.3413 236.012 11.7584 236.012 10.7548C236.012 9.45637 234.948 8.61506 232.786 8.61506C230.623 8.61506 229.461 9.42324 229.226 11.0462H225.568C225.966 7.67439 228.56 5.82949 232.884 5.82949C237.209 5.82949 239.667 7.74064 239.667 11.2383V18.237C239.667 20.1813 239.799 21.7049 240 22.5131H236.44C236.342 22.1554 236.24 21.281 236.175 20.1151C235.012 21.8639 233.183 23 230.521 23C227.261 23 225 21.218 225 18.3033H225.003ZM227.597 0H231.324V3.53082H227.597V0ZM231.589 20.3138C234.581 20.3138 236.012 18.3397 236.012 15.0341V14.1266C235.614 14.5472 234.914 14.8718 233.884 15.0971L231.222 15.6138C229.525 15.9715 228.662 16.8128 228.662 18.0781C228.662 19.5685 229.692 20.3138 231.589 20.3138ZM234.149 0H237.906V3.53082H234.149V0Z" fill="white"/>
<path d="M246.387 19.5525V9.63564H242V6.74003H246.387V3H249.909V6.74003H254.457V9.63564H249.909V18.5785C249.909 19.5858 250.423 20.1077 251.415 20.1077H255V23H249.782C247.637 23 246.387 21.7301 246.387 19.5525Z" fill="white"/>
<path d="M3.69403 15.1457V23H0V0H3.69403V7.88522L22 0V3.99582L4.68239 11.5172L22 18.9699V23L3.69403 15.1457Z" fill="white"/>
<path d="M331 28H327.306V9.27653H309V6H331V28Z" fill="white"/>
<path d="M306 28H302V24.4997H306V28ZM305.931 22.06H302.073V6H305.931V22.06Z" fill="white"/>
<path d="M298 22.504H294.366V20.0947C293.308 21.9438 291.292 23 288.816 23C285.084 23 283 20.6245 283 16.5955V6H286.634V15.8362C286.634 18.4109 287.725 19.6661 290.005 19.6661C292.812 19.6661 294.366 17.7495 294.366 13.923V6H298V22.504Z" fill="white"/>
<path d="M281 9.32979L271.435 19.9726H280.8V23H267.264V19.7015L276.828 9.02392H267V6H280.997V9.32979H281Z" fill="white"/>
</svg>
